<?xml version="1.0" standalone="no"?>
<!DOCTYPE svg PUBLIC "-//W3C//DTD SVG 20010904//EN"
 "http://www.w3.org/TR/2001/REC-SVG-20010904/DTD/svg10.dtd">
<svg version="1.0" xmlns="http://www.w3.org/2000/svg"
 width="420.000000pt" height="420.000000pt" viewBox="0 0 420.000000 420.000000"
 preserveAspectRatio="xMidYMid meet">
<metadata>
Created by potrace 1.14, written by Peter Selinger 2001-2017
</metadata>
<g transform="translate(0.000000,420.000000) scale(0.100000,-0.100000)"
fill="#000000" stroke="none">
<path d="M1978 4194 c-2 -1 -41 -5 -88 -8 -268 -18 -618 -132 -859 -281 -9 -5
-34 -21 -56 -34 -160 -99 -422 -337 -528 -481 -27 -36 -54 -72 -60 -80 -25
-31 -115 -177 -145 -235 -204 -394 -273 -795 -218 -1265 21 -178 109 -460 199
-641 51 -102 182 -318 206 -339 3 -3 24 -27 46 -55 61 -76 210 -224 302 -297
381 -307 838 -471 1313 -472 93 0 270 11 291 18 8 3 32 7 54 10 93 12 209 41
349 87 433 145 824 450 1075 839 79 122 180 327 225 458 34 99 40 121 52 186
l6 29 -174 -6 c-95 -3 -189 -9 -208 -12 -189 -32 -333 -69 -458 -115 -29 -11
-55 -20 -58 -20 -9 0 4 108 26 221 12 57 24 124 28 149 8 59 8 223 0 280 -10
66 -18 145 -23 232 -2 42 -8 85 -13 95 -13 25 -25 123 -15 123 24 0 72 122 79
200 3 30 12 82 21 115 34 135 40 196 41 389 1 213 -3 237 -51 269 -17 11 -42
15 -88 12 -85 -4 -90 -6 -148 -43 -70 -46 -194 -148 -295 -244 -69 -65 -95
-74 -194 -64 -69 7 -84 9 -162 21 -25 4 -70 6 -100 6 -30 -1 -82 -2 -115 -3
-56 -2 -146 6 -206 17 -87 16 -166 23 -259 23 -162 -1 -158 -3 -244 120 -176
253 -272 339 -392 349 -72 6 -110 -21 -131 -92 -22 -80 -40 -167 -50 -250 -10
-76 -10 -382 -1 -455 4 -30 8 -80 9 -110 2 -31 11 -70 21 -88 24 -43 23 -47
-13 -160 -17 -53 -32 -101 -33 -107 -2 -5 -5 -14 -6 -20 -2 -5 -10 -30 -18
-55 -19 -62 -42 -158 -48 -200 -14 -108 -21 -619 -10 -765 14 -184 18 -211 32
-239 11 -23 13 -52 7 -130 -4 -56 -7 -125 -7 -153 -1 -29 -3 -53 -6 -53 -3 0
-6 -24 -7 -53 -4 -86 -12 -117 -31 -117 -24 0 13 -33 115 -103 172 -118 371
-199 553 -223 19 -3 57 -9 84 -13 50 -9 294 -7 377 3 50 6 84 11 174 30 47 10
155 39 229 64 45 14 83 26 86 27 7 2 36 14 120 47 223 89 564 286 750 434 68
54 130 90 130 76 0 -8 -26 -32 -120 -111 -30 -25 -57 -49 -60 -52 -12 -13
-179 -137 -215 -159 -22 -13 -42 -26 -45 -29 -3 -4 -14 -11 -25 -18 -11 -6
-51 -31 -90 -53 -78 -47 -336 -174 -375 -185 -14 -4 -38 -13 -55 -20 -83 -35
-286 -93 -355 -101 -19 -3 -42 -6 -50 -9 -52 -15 -323 -24 -455 -15 -73 5
-199 27 -285 51 -149 40 -272 98 -414 193 -77 52 -97 69 -197 161 -194 179
-373 468 -475 766 -35 101 -40 118 -50 168 -3 14 -7 28 -9 31 -2 4 -9 35 -14
71 -6 35 -13 75 -16 89 -34 164 -22 493 26 700 26 112 24 107 44 170 105 338
336 689 598 906 313 262 663 413 1063 459 126 14 349 15 444 0 19 -3 51 -7 70
-10 181 -25 376 -88 571 -184 115 -57 108 -52 231 -134 143 -94 345 -276 426
-386 15 -20 29 -38 32 -41 12 -11 78 -108 113 -167 35 -58 102 -189 142 -278
45 -99 108 -314 120 -404 3 -23 7 -46 10 -50 8 -15 20 -188 20 -306 -1 -133
-10 -253 -24 -302 -11 -38 -9 -40 44 -43 65 -4 75 -1 85 25 29 76 32 428 5
635 -42 325 -189 673 -408 965 -71 94 -275 301 -367 372 -249 193 -528 327
-830 399 -90 21 -99 23 -151 29 -25 3 -56 8 -70 11 -25 6 -366 13 -371 8z"/>
</g>
</svg>
