<?xml version="1.0" encoding="utf-8"?>
<!-- Generator: Adobe Illustrator 25.2.1, SVG Export Plug-In . SVG Version: 6.00 Build 0)  -->
<svg version="1.1" id="Layer_1" xmlns="http://www.w3.org/2000/svg" xmlns:xlink="http://www.w3.org/1999/xlink" x="0px" y="0px"
	 viewBox="0 0 595.28 841.89" style="enable-background:new 0 0 595.28 841.89;" xml:space="preserve">
<g>
	<g>
		<path d="M276.76,621.97c-7.38,3.72-12.86,8.56-18.77,12.76c-4.31,3.07-8.52,6.34-13.68,7.93c-3.69,1.14-5.1,0.04-4.35-3.73
			c0.71-3.61,2.65-6.77,4.66-9.79c3.58-5.38,7.36-10.62,10.99-15.96c1.56-2.3,3.33-4.51,4.21-7.66c-4.94-0.42-8.61,2.46-12.55,4.12
			c-5.94,2.5-11.64,5.55-17.49,8.25c-1.78,0.82-3.62,1.59-5.69,1.57c-3.81-0.03-5.11-1.89-3.44-5.37c1.52-3.17,3.91-5.74,6.37-8.21
			c5.74-5.76,11.5-11.51,17.2-17.31c0.86-0.87,2.51-1.69,1.64-3.21c-0.77-1.33-2.1-0.24-3.15,0c-9.82,2.21-19.62,4.51-29.46,6.64
			c-2.45,0.53-5.59,1.95-7.09-1.19c-1.43-2.98,0.5-5.49,2.93-7.21c7.16-5.08,14.39-10.07,21.64-15.01c1.93-1.32,3.63-2.78,5.38-5.18
			c-4.84-1.46-9.3-0.82-13.66-0.72c-7.63,0.18-15.25,0.77-22.88,1.02c-1.53,0.05-3.95,1.67-4.5-1.21c-0.46-2.42-0.43-4.88,2.41-6.41
			c4.25-2.28,8.74-3.92,13.21-5.65c4.62-1.79,9.25-3.56,13.8-5.5c2.53-1.08,5.24-2.03,7.23-4.91c-6.57-2.44-13.22-3.23-19.79-4.34
			c-4.73-0.8-9.51-1.3-14.22-2.18c-2.43-0.45-4.87-1.15-4.73-4.64c0.12-3.08,2.02-3.85,4.47-4.32c8.6-1.63,17.2-3.25,25.79-4.93
			c2.55-0.5,5.18-0.89,7.65-2.82c-3.27-3.11-7.39-4.33-11.21-5.95c-5.32-2.25-10.81-4.09-16.2-6.17c-1.38-0.53-2.73-1.2-3.99-1.98
			c-1.98-1.22-3.24-2.97-2.6-5.41c0.65-2.46,2.83-2.52,4.81-2.56c5.98-0.12,11.96-0.02,17.94-0.23c5.08-0.18,10.16-0.69,16.02-1.11
			c-3.13-4.41-7.39-5.94-10.94-8.31c-5.51-3.67-11.27-6.95-16.88-10.47c-1.39-0.88-2.63-2.02-3.89-3.08
			c-1.85-1.55-2.64-3.68-1.62-5.78c0.95-1.96,3.18-1.44,4.93-1.09c11.17,2.2,22.33,4.48,33.5,6.71c1.12,0.22,2.27,0.27,3.76,0.44
			c-0.35-2.58-2.16-3.81-3.52-5.31c-5.7-6.27-12.63-11.3-17.95-17.95c-0.62-0.78-1.32-1.51-1.83-2.35c-1.14-1.89-2.1-3.92-0.44-5.97
			c1.49-1.83,3.51-1.46,5.51-0.96c6.46,1.6,12.37,4.6,18.45,7.18c4.05,1.72,8.04,3.7,13.08,4.46c-1.75-5.01-4.83-8.59-7.66-12.28
			c-4.03-5.26-8.16-10.45-11.19-16.39c-0.9-1.75-1.86-3.62-0.24-5.53c1.47-1.74,3.35-1.1,5.09-0.75c5.35,1.06,9.53,4.43,13.94,7.31
			c4.71,3.08,9.37,6.24,14.12,9.26c0.9,0.57,2.26,1.38,3.11,0.19c0.39-0.55-0.04-1.9-0.43-2.73c-3.72-7.92-7.66-15.75-11.22-23.74
			c-1.34-3.02-3.81-7.02-0.42-9.58c3.53-2.66,7.06,0.5,9.64,2.91c6.06,5.66,11.73,11.73,17.65,17.55c1.11,1.09,2.05,2.65,4.29,2.65
			c0.51-4.91-1.24-9.42-2.23-13.97c-1.51-6.93-3.54-13.75-5.1-20.67c-0.51-2.26-1.76-5.31,0.98-6.74c2.97-1.55,5.3,0.54,7.24,2.81
			c5.94,6.97,9.83,15.34,15.37,22.58c1.83,2.39,3.07,7.02,5.97,6.26c2.23-0.59,0.93-5.37,0.88-8.25c-0.17-8.79-0.7-17.58-0.9-26.37
			c-0.04-1.51-1.39-4.04,1.57-4.39c2.4-0.28,5-0.65,6.68,2.03c2.21,3.55,3.27,7.57,4.76,11.41c2.33,6,4.66,12,7.1,17.96
			c0.47,1.15,1.12,2.67,2.75,2.47c1.61-0.2,1.72-1.75,2.06-3.02c2.11-7.86,2.4-16.01,3.94-23.96c0.35-1.78,0.65-3.58,1.16-5.32
			c0.78-2.65,2.89-3.43,5.4-3.47c2.63-0.04,3.25,1.82,3.63,3.89c1.58,8.61,3.14,17.22,4.77,25.81c0.39,2.05,0.42,4.84,3.11,4.96
			c2.25,0.1,2.91-2.54,3.6-4.29c2.53-6.45,4.79-13.01,7.24-19.5c1.11-2.93,2.37-5.81,3.68-8.66c0.98-2.14,2.96-2.57,5.05-2.3
			c2.57,0.33,2.35,2.41,2.32,4.22c-0.12,6.31-0.18,12.62-0.49,18.92c-0.29,5.82-0.66,11.61,0.81,17.41
			c2.39,0.31,2.98-1.74,3.89-3.15c5.05-7.78,9.99-15.62,15.01-23.41c0.8-1.24,1.76-2.41,2.77-3.49c1.67-1.77,3.96-2.2,5.96-1.24
			c2.02,0.97,2.05,3.27,1.61,5.28c-1.97,9.03-3.96,18.06-6.04,27.07c-0.6,2.62-1.69,6.52,0.03,7.47c2.48,1.36,4.02-2.44,5.79-4.15
			c6.1-5.87,10.84-13.02,17.41-18.45c1.26-1.04,2.68-1.91,4.08-2.77c1.36-0.84,2.83-1.09,4.18,0c1.43,1.15,1.73,2.62,1.33,4.45
			c-1.34,6.21-4.14,11.83-6.79,17.52c-2.47,5.31-5.22,10.52-7.16,16.98c6.36-2.3,10.8-5.97,15.4-9.32
			c5.75-4.19,11.36-8.6,17.97-11.41c1.63-0.69,3.4-1.83,5.09-0.26c1.73,1.6,0.63,3.39-0.03,5.05c-3.6,9.07-10.24,16.19-15.48,24.21
			c-1.81,2.78-4.57,5.19-4.51,9.75c10.2-4.76,19.86-9.31,29.56-13.77c2.23-1.02,4.46-2.14,7.06-2.09c3.86,0.08,5.04,1.81,3.47,5.39
			c-1.22,2.78-3.26,4.95-5.31,7.13c-6.7,7.12-14.3,13.37-21.06,21.48c6.59,0.83,12.16-1.18,17.75-2.47
			c4.67-1.08,9.33-2.1,14.07-2.84c2.72-0.43,5.64-0.95,7.05,1.84c1.58,3.13-0.76,5.46-3.09,7.09c-6.92,4.84-14.02,9.41-20.96,14.21
			c-1.79,1.24-5.15,2.07-4.33,4.67c0.66,2.1,3.86,1.3,5.92,1.25c8.96-0.2,17.91-0.7,26.87-0.86c1.66-0.03,4.4-1.56,4.97,1.49
			c0.52,2.82,0.15,5.53-2.97,7.19c-5.73,3.05-11.99,4.72-17.91,7.24c-3.03,1.29-6.26,2.14-9.27,3.48c-1.65,0.74-4.53,0.92-4.25,3.28
			c0.22,1.81,2.72,2.03,4.56,2.33c5.71,0.91,11.41,1.88,17.12,2.83c4.08,0.67,8.17,1.28,12.23,2.03c2.44,0.45,4.33,1.47,4.33,4.5
			c-0.01,2.99-1.8,4.04-4.29,4.53c-9.88,1.94-19.77,3.86-29.65,5.79c-1.27,0.25-3.12,0.01-3.4,1.49c-0.33,1.69,1.42,2.58,2.73,3.11
			c5.51,2.22,11.08,4.27,16.64,6.37c2.78,1.05,5.59,2.03,8.36,3.1c2.72,1.05,4.7,2.94,4.21,5.98c-0.52,3.28-3.41,3-5.93,3.09
			c-8.62,0.3-17.25,0.64-25.87,0.98c-1.47,0.06-3.58-0.33-4.08,1.11c-0.65,1.86,1.59,2.73,2.81,3.52
			c7.08,4.59,14.31,8.96,21.44,13.47c1.53,0.97,2.93,2.16,4.3,3.35c2.18,1.89,2.46,4.53,1.33,6.8c-1.01,2.03-3.48,1.61-5.42,1.2
			c-7.91-1.67-15.78-3.57-23.71-5.13c-3-0.59-6-1.82-9.88-0.96c2.68,4.92,6.63,8.16,10.42,11.47c4.89,4.26,9.78,8.51,13.46,13.9
			c1.3,1.91,2.45,4.09,0.73,6.42c-1.71,2.31-3.94,1.21-5.93,0.64c-9.59-2.73-18.17-7.89-27.39-11.54c-1.61-0.64-3.05-2.16-5.24-1.07
			c1.48,4.89,4.96,8.49,7.85,12.44c3.81,5.22,7.9,10.26,10.49,16.24c0.97,2.24,2.35,4.94,0.28,6.97c-2.29,2.25-4.91,0.67-7.28-0.6
			c-7.63-4.09-14.2-9.73-21.4-14.44c-1.78-1.17-3.65-2.19-5.87-3.51c-0.66,3.26,0.96,5.49,1.88,7.74c2.44,5.96,5.2,11.79,7.78,17.7
			c0.93,2.12,1.74,4.26,1.96,6.62c0.17,1.85,0.62,3.89-1.26,4.95c-1.83,1.02-3.84,0.6-5.62-0.63c-4.65-3.23-8.92-6.89-12.83-10.99
			c-3.74-3.92-7.58-7.73-12.88-10.83c0.51,8.2,3.2,15.27,4.93,22.55c0.88,3.69,1.88,7.37,2.48,11.11c0.26,1.63,0.97,3.93-1.18,4.9
			c-2.05,0.92-4.35,0.65-6.11-0.85c-1.49-1.27-2.86-2.78-3.97-4.39c-4.7-6.82-9.27-13.73-13.91-20.58c-0.91-1.35-1.67-2.9-3.95-3.53
			c-1.28,6.8-0.84,13.58-0.35,20.27c0.39,5.31,0.71,10.61,0.66,15.92c-0.01,1.54,1.41,3.97-1.49,4.46c-2.32,0.38-4.8,0.33-6.12-2.16
			c-1.54-2.92-3.01-5.89-4.29-8.93c-2.45-5.78-4.71-11.64-7.11-17.43c-0.94-2.27-2.08-4.45-4.3-6.56
			c-3.12,6.31-3.29,12.93-4.51,19.27c-0.9,4.7-1.3,9.5-2.16,14.22c-0.46,2.54-0.89,5.58-4.55,5.45c-3.19-0.12-3.89-2.75-4.36-5.2
			c-1.73-8.92-3.29-17.87-5.05-26.78c-0.46-2.34-0.38-6.07-2.76-6.32c-2.51-0.26-3,3.5-3.87,5.65c-2.97,7.34-5.59,14.83-8.43,22.22
			c-0.65,1.68-1.63,3.25-2.55,4.81c-1.1,1.86-2.94,2.1-4.81,1.74c-2.04-0.4-2.39-2.16-2.43-3.84c-0.11-5.31,0-10.63-0.17-15.95
			c-0.18-5.47-0.56-10.94-0.93-16.4c-0.05-0.76-0.3-1.81-0.83-2.17c-1.14-0.76-1.73,0.51-2.31,1.18c-3.39,3.91-5.83,8.44-8.43,12.87
			c-2.34,4-4.77,7.94-7.8,11.49c-1.78,2.08-3.98,2.4-6.31,1.71c-2.82-0.83-2.46-3.46-2.11-5.44c1.65-9.1,3.54-18.15,5.37-27.21
			c0.29-1.46,1.13-3.44-0.08-4.23c-1.8-1.18-2.9,1.05-3.91,2.11c-5.26,5.53-10.38,11.2-15.51,16.85c-2.36,2.59-4.92,4.91-7.9,6.78
			c-1.68,1.05-3.42,1.34-5.16,0.29c-2.04-1.23-1.41-3.02-0.98-4.85c2.04-8.6,6.57-16.2,9.68-24.36
			C274.58,629.71,276.26,626.49,276.76,621.97z M423.38,493.29c0.03-15.42-7.35-30.96-18.92-39.89
			c-14.53-11.21-31.2-7.23-38.98,9.31c-9.24,19.66,1.4,49.21,21.07,58.49c12.17,5.74,24.38,2.77,31.46-8.09
			C421.88,507.18,423.64,500.45,423.38,493.29z M341.59,501.25c-0.3-11.79-3.41-24.08-13.23-33.81
			c-13.35-13.21-32.68-10.19-41.12,6.37c-8.31,16.3-4.66,41.78,7.89,54.97c12.84,13.49,32.34,11.16,41.55-4.96
			C340.39,517.29,341.62,510.19,341.59,501.25z"/>
		<path d="M367.39,476.97c-0.06-7.25,2.86-12.06,8.43-14.33c4.99-2.03,10.56-0.33,14.97,4.87c3.96,4.66,5.91,9.98,3.99,16.13
			c-1.61,5.13-4.17,9.44-10.15,10.33c-6.39,0.95-10.88-2.08-14.25-7.09C368.31,483.8,367.2,480.33,367.39,476.97z"/>
		<path d="M331.75,492.06c-0.05,9.25-5.12,15.27-12.65,15.65c-7.28,0.36-14.28-6.65-15.41-15.44c-1.11-8.64,3.83-15.7,11.7-16.71
			c8.17-1.04,14.92,4.42,16.18,13.16C331.76,490.02,331.72,491.36,331.75,492.06z"/>
	</g>
</g>
</svg>
